<svg 
	 viewBox="0 0 256 256" style="enable-background:new 0 0 256 256;" xml:space="preserve">
<style type="text/css">
	.st0{fill:#800;}
	@media (prefers-color-scheme: dark) {
	.st0{fill:#fff;}
	}
</style>
<path class="st0" d="M82.4,189.6c-6.3,0-11.4-5.1-11.4-11.4V82.5c0-6.3,5.1-11.4,11.4-11.4s11.4,5.1,11.4,11.4v95.6
	C93.8,184.5,88.7,189.6,82.4,189.6z"/>
<path class="st0" d="M130.4,189.6c-6.3,0-11.4-5.1-11.4-11.4V82.5c0-6.3,5.1-11.4,11.4-11.4c6.3,0,11.4,5.1,11.4,11.4v95.6
	C141.8,184.5,136.7,189.6,130.4,189.6z"/>
<path class="st0" d="M128,252.7c-68.8,0-124.7-56-124.7-124.7S59.2,3.3,128,3.3s124.7,56,124.7,124.7c0,27.3-8.7,53.3-25.1,75.1
	c-3.8,5.1-11.1,6.1-16.2,2.3c-5.1-3.8-6.1-11.1-2.3-16.2c13.4-17.7,20.5-38.9,20.5-61.2c0-56.1-45.6-101.7-101.7-101.7
	C71.9,26.3,26.3,71.9,26.3,128S71.9,229.7,128,229.7c12.8,0,25.1-2.3,36.8-6.9v-143c0-6.4,5.2-11.5,11.5-11.5s11.5,5.2,11.5,11.5
	v150.6c0,4.4-2.6,8.5-6.6,10.4l-0.6,0.3C164.1,248.8,146.4,252.7,128,252.7z"/>
</svg>
