<?xml version="1.0" standalone="no"?>
<!DOCTYPE svg PUBLIC "-//W3C//DTD SVG 20010904//EN"
 "http://www.w3.org/TR/2001/REC-SVG-20010904/DTD/svg10.dtd">
<svg version="1.0" xmlns="http://www.w3.org/2000/svg"
 width="700.000000pt" height="700.000000pt" viewBox="0 0 700.000000 700.000000"
 preserveAspectRatio="xMidYMid meet">
<metadata>
Created by potrace 1.14, written by Peter Selinger 2001-2017
</metadata>
<g transform="translate(0.000000,700.000000) scale(0.100000,-0.100000)"
fill="#000000" stroke="none">
<path d="M3477 6824 c-1 -1 -69 -5 -150 -8 -81 -4 -153 -9 -160 -11 -7 -2 -39
-6 -72 -9 -33 -4 -96 -13 -140 -21 -44 -9 -96 -18 -115 -21 -19 -3 -53 -10
-75 -16 -22 -5 -48 -12 -58 -14 -56 -10 -305 -91 -405 -130 -345 -136 -694
-346 -956 -574 -611 -533 -1000 -1229 -1125 -2015 -29 -186 -36 -282 -36 -520
0 -207 6 -302 26 -440 5 -38 12 -88 15 -110 8 -55 60 -285 85 -370 92 -317
242 -640 422 -910 189 -283 387 -502 673 -745 98 -83 312 -231 456 -313 88
-51 320 -167 333 -167 3 0 24 -9 48 -19 101 -46 339 -125 472 -156 17 -4 39
-9 50 -12 72 -17 201 -41 270 -49 22 -3 51 -7 65 -9 109 -20 538 -28 705 -13
90 8 222 25 257 33 13 2 34 7 48 9 201 33 510 125 700 208 172 76 228 118 272
206 l23 47 3 2070 c2 2286 7 2128 -61 2217 -145 189 -443 149 -528 -71 l-22
-56 -1 -1935 -1 -1935 -35 -16 c-92 -43 -430 -129 -565 -144 -33 -3 -73 -8
-90 -10 -103 -14 -424 -21 -485 -11 -14 2 -56 7 -95 11 -669 60 -1353 426
-1790 957 -106 129 -99 120 -158 206 -215 311 -360 661 -433 1042 -7 34 -26
169 -32 230 -15 140 -7 510 13 630 2 14 6 41 9 60 116 748 557 1425 1206 1848
108 72 282 165 417 224 165 73 496 165 658 184 17 2 44 6 60 8 115 19 390 26
551 14 954 -72 1815 -663 2232 -1530 96 -200 182 -455 217 -648 3 -14 7 -36
10 -50 3 -14 8 -42 11 -64 3 -21 7 -48 10 -59 24 -124 23 -563 -1 -708 -2 -13
-6 -40 -9 -59 -26 -174 -89 -412 -151 -570 -77 -197 -191 -405 -338 -617 -37
-54 -70 -109 -74 -123 -4 -14 -7 -61 -7 -105 0 -67 4 -88 26 -131 84 -161 289
-216 442 -118 84 54 275 340 411 616 138 279 267 696 299 963 3 28 8 61 11 74
13 65 20 218 20 426 0 199 -10 398 -20 415 -2 3 -6 32 -9 65 -4 33 -9 67 -11
75 -2 8 -7 31 -10 50 -29 168 -104 433 -174 608 -196 489 -487 907 -881 1266
-98 88 -325 261 -425 323 -334 206 -613 328 -957 417 -73 20 -146 38 -163 41
-116 20 -207 35 -250 40 -27 4 -60 8 -73 10 -42 7 -380 23 -385 19z"/>
<path d="M2150 5075 c-25 -7 -57 -17 -73 -23 -41 -17 -116 -97 -140 -150 l-22
-47 -3 -1345 c-1 -950 1 -1355 9 -1380 20 -66 41 -102 81 -142 98 -98 248
-119 365 -52 78 45 135 122 150 201 4 21 7 639 7 1373 l1 1335 -26 55 c-65
138 -212 212 -349 175z"/>
<path d="M3421 5070 c-60 -20 -128 -65 -149 -100 -9 -14 -20 -27 -23 -30 -4
-3 -15 -30 -26 -60 -17 -53 -18 -116 -18 -1400 l0 -1345 26 -56 c66 -140 220
-212 365 -171 97 28 187 121 211 219 7 27 10 490 9 1385 l-2 1343 -22 48 c-63
138 -232 214 -371 167z"/>
</g>
</svg>
